# xmcd
#
# Track frame offsets:
#	150
#	21730
#	47897
#	67770
#	90170
#	105662
#	122132
#	138865
#	158077
#	179590
#
# Disc length: 2591 seconds
#
# Revision: 0
# Processed by: cddbd v1.5.2PL0 Copyright (c) Steve Scherf et al.
# Submitted via: EasyCDDAExtractor 7.5.0.1
#
DISCID=800a1d0a
DTITLE=Yury George - The Best Vol.2
DYEAR=1994
DGENRE=Blues
TTITLE0=Pine-Tree Reggae
TTITLE1=Let Me Live Again
TTITLE2=Funny Sad Story
TTITLE3=Coming Home
TTITLE4=Virgin (For The First Time)
TTITLE5=Always On My Mind
TTITLE6=Don't Shoot Me, Cop
TTITLE7=Phone Message
TTITLE8=Let Me Go
TTITLE9=Stay Here
EXTD=
EXTT0=
EXTT1=
EXTT2=
EXTT3=
EXTT4=
EXTT5=
EXTT6=
EXTT7=
EXTT8=
EXTT9=
PLAYORDER=
